<svg width="36" height="36" viewBox="0 0 36 36" fill="none" xmlns="http://www.w3.org/2000/svg">
<circle cx="18" cy="18" r="17.5" stroke="#78829D"/>
<circle cx="18" cy="18" r="17.5" stroke="#1C1E25"/>
<circle cx="18" cy="18" r="17.5" stroke="#C3DCFF"/>
<circle cx="18" cy="18" r="17.5" stroke="#EDF5FF"/>
<circle cx="18" cy="18" r="17.5" stroke="#77819C"/>
<circle cx="18" cy="18" r="17.5" stroke="#071437"/>
<circle cx="18" cy="18" r="17.5" stroke="#4B5675"/>
<circle cx="18" cy="18" r="17.5" stroke="#252F4A"/>
<circle cx="18" cy="18" r="17.5" stroke="#056EE9"/>
<path d="M12 18L16.25 22L23.5 14" stroke="#78829D" stroke-width="2" stroke-linecap="round"/>
<path d="M12 18L16.25 22L23.5 14" stroke="#1C1E25" stroke-width="2" stroke-linecap="round"/>
<path d="M12 18L16.25 22L23.5 14" stroke="#C3DCFF" stroke-width="2" stroke-linecap="round"/>
<path d="M12 18L16.25 22L23.5 14" stroke="#EDF5FF" stroke-width="2" stroke-linecap="round"/>
<path d="M12 18L16.25 22L23.5 14" stroke="#77819C" stroke-width="2" stroke-linecap="round"/>
<path d="M12 18L16.25 22L23.5 14" stroke="#071437" stroke-width="2" stroke-linecap="round"/>
<path d="M12 18L16.25 22L23.5 14" stroke="#4B5675" stroke-width="2" stroke-linecap="round"/>
<path d="M12 18L16.25 22L23.5 14" stroke="#252F4A" stroke-width="2" stroke-linecap="round"/>
<path d="M12 18L16.25 22L23.5 14" stroke="#056EE9" stroke-width="2" stroke-linecap="round"/>
</svg>
