<svg width="36" height="36" viewBox="0 0 36 36" fill="none" xmlns="http://www.w3.org/2000/svg">
<circle cx="18" cy="18" r="18" fill="#78829D"/>
<circle cx="18" cy="18" r="18" fill="#1C1E25"/>
<circle cx="18" cy="18" r="18" fill="#C3DCFF"/>
<circle cx="18" cy="18" r="18" fill="#EDF5FF"/>
<circle cx="18" cy="18" r="18" fill="#77819C"/>
<circle cx="18" cy="18" r="18" fill="#071437"/>
<circle cx="18" cy="18" r="18" fill="#4B5675"/>
<circle cx="18" cy="18" r="18" fill="#252F4A"/>
<circle cx="18" cy="18" r="18" fill="#056EE9"/>
<path d="M18.4751 23.0227L18.4751 12.0229" stroke="#F9F9F9" stroke-width="2" stroke-linecap="round"/>
<path d="M18.4751 23.0227L18.4751 12.0229" stroke="#F8F8F8" stroke-width="2" stroke-linecap="round"/>
<path d="M18.4751 23.0227L18.4751 12.0229" stroke="#F9FAFC" stroke-width="2" stroke-linecap="round"/>
<path d="M18.4751 23.0227L18.4751 12.0229" stroke="#E8EBF5" stroke-width="2" stroke-linecap="round"/>
<path d="M18.4751 23.0227L18.4751 12.0229" stroke="#D8DBE6" stroke-width="2" stroke-linecap="round"/>
<path d="M18.4751 23.0227L18.4751 12.0229" stroke="#FCFCFC" stroke-width="2" stroke-linecap="round"/>
<path d="M18.4751 23.0227L18.4751 12.0229" stroke="white" stroke-width="2" stroke-linecap="round"/>
<path d="M13.0082 17.4782L24.0083 17.478" stroke="#F9F9F9" stroke-width="2" stroke-linecap="round"/>
<path d="M13.0082 17.4782L24.0083 17.478" stroke="#F8F8F8" stroke-width="2" stroke-linecap="round"/>
<path d="M13.0082 17.4782L24.0083 17.478" stroke="#F9FAFC" stroke-width="2" stroke-linecap="round"/>
<path d="M13.0082 17.4782L24.0083 17.478" stroke="#E8EBF5" stroke-width="2" stroke-linecap="round"/>
<path d="M13.0082 17.4782L24.0083 17.478" stroke="#D8DBE6" stroke-width="2" stroke-linecap="round"/>
<path d="M13.0082 17.4782L24.0083 17.478" stroke="#FCFCFC" stroke-width="2" stroke-linecap="round"/>
<path d="M13.0082 17.4782L24.0083 17.478" stroke="white" stroke-width="2" stroke-linecap="round"/>
</svg>
