<svg width="20" height="21" viewBox="0 0 20 21" fill="none" xmlns="http://www.w3.org/2000/svg">
<path fill-rule="evenodd" clip-rule="evenodd" d="M5.28221 3.72453H11.117C12.7103 3.72453 14.034 4.12464 14.9546 5.04526C15.8753 5.96589 16.2754 7.28964 16.2754 8.883V12.4834C16.9725 12.3122 17.4751 12.0027 17.8283 11.5879C18.3112 11.0209 18.6033 10.1534 18.6033 8.883V5.15848C18.6033 3.78152 18.2585 2.87521 17.6916 2.30835C17.1247 1.74149 16.2184 1.3967 14.8415 1.3967H8.88225C7.61701 1.3967 6.74902 1.68855 6.18035 2.17201C5.76463 2.52544 5.45396 3.02814 5.28221 3.72453ZM5.27568 1.1079C6.18284 0.33666 7.41921 0 8.88225 0H14.8415C16.4348 0 17.7585 0.400117 18.6792 1.32074C19.5999 2.24136 20 3.56512 20 5.15848V8.883C20 10.3502 19.6635 11.587 18.8916 12.4935C18.1123 13.4088 16.9775 13.8838 15.5993 14.0017C15.3894 14.0197 15.1825 13.9418 15.0365 13.79C14.8904 13.6381 14.8207 13.4283 14.8469 13.2193C14.8699 13.0347 14.8787 12.8331 14.8787 12.6075V8.883C14.8787 7.50605 14.5339 6.59974 13.9671 6.03288C13.4002 5.46601 12.4939 5.12122 11.117 5.12122H5.15769C4.93205 5.12122 4.73051 5.13001 4.54596 5.15309C4.33687 5.17922 4.12715 5.10955 3.97527 4.96348C3.82339 4.81742 3.74558 4.61059 3.76353 4.40064C3.88147 3.02124 4.35952 1.88678 5.27568 1.1079Z" fill="#C3DCFF"/>
<path fill-rule="evenodd" clip-rule="evenodd" d="M5.28221 3.72453H11.117C12.7103 3.72453 14.034 4.12464 14.9546 5.04526C15.8753 5.96589 16.2754 7.28964 16.2754 8.883V12.4834C16.9725 12.3122 17.4751 12.0027 17.8283 11.5879C18.3112 11.0209 18.6033 10.1534 18.6033 8.883V5.15848C18.6033 3.78152 18.2585 2.87521 17.6916 2.30835C17.1247 1.74149 16.2184 1.3967 14.8415 1.3967H8.88225C7.61701 1.3967 6.74902 1.68855 6.18035 2.17201C5.76463 2.52544 5.45396 3.02814 5.28221 3.72453ZM5.27568 1.1079C6.18284 0.33666 7.41921 0 8.88225 0H14.8415C16.4348 0 17.7585 0.400117 18.6792 1.32074C19.5999 2.24136 20 3.56512 20 5.15848V8.883C20 10.3502 19.6635 11.587 18.8916 12.4935C18.1123 13.4088 16.9775 13.8838 15.5993 14.0017C15.3894 14.0197 15.1825 13.9418 15.0365 13.79C14.8904 13.6381 14.8207 13.4283 14.8469 13.2193C14.8699 13.0347 14.8787 12.8331 14.8787 12.6075V8.883C14.8787 7.50605 14.5339 6.59974 13.9671 6.03288C13.4002 5.46601 12.4939 5.12122 11.117 5.12122H5.15769C4.93205 5.12122 4.73051 5.13001 4.54596 5.15309C4.33687 5.17922 4.12715 5.10955 3.97527 4.96348C3.82339 4.81742 3.74558 4.61059 3.76353 4.40064C3.88147 3.02124 4.35952 1.88678 5.27568 1.1079Z" fill="#EDF5FF"/>
<path fill-rule="evenodd" clip-rule="evenodd" d="M5.28221 3.72453H11.117C12.7103 3.72453 14.034 4.12464 14.9546 5.04526C15.8753 5.96589 16.2754 7.28964 16.2754 8.883V12.4834C16.9725 12.3122 17.4751 12.0027 17.8283 11.5879C18.3112 11.0209 18.6033 10.1534 18.6033 8.883V5.15848C18.6033 3.78152 18.2585 2.87521 17.6916 2.30835C17.1247 1.74149 16.2184 1.3967 14.8415 1.3967H8.88225C7.61701 1.3967 6.74902 1.68855 6.18035 2.17201C5.76463 2.52544 5.45396 3.02814 5.28221 3.72453ZM5.27568 1.1079C6.18284 0.33666 7.41921 0 8.88225 0H14.8415C16.4348 0 17.7585 0.400117 18.6792 1.32074C19.5999 2.24136 20 3.56512 20 5.15848V8.883C20 10.3502 19.6635 11.587 18.8916 12.4935C18.1123 13.4088 16.9775 13.8838 15.5993 14.0017C15.3894 14.0197 15.1825 13.9418 15.0365 13.79C14.8904 13.6381 14.8207 13.4283 14.8469 13.2193C14.8699 13.0347 14.8787 12.8331 14.8787 12.6075V8.883C14.8787 7.50605 14.5339 6.59974 13.9671 6.03288C13.4002 5.46601 12.4939 5.12122 11.117 5.12122H5.15769C4.93205 5.12122 4.73051 5.13001 4.54596 5.15309C4.33687 5.17922 4.12715 5.10955 3.97527 4.96348C3.82339 4.81742 3.74558 4.61059 3.76353 4.40064C3.88147 3.02124 4.35952 1.88678 5.27568 1.1079Z" fill="#071437"/>
<path fill-rule="evenodd" clip-rule="evenodd" d="M5.28221 3.72453H11.117C12.7103 3.72453 14.034 4.12464 14.9546 5.04526C15.8753 5.96589 16.2754 7.28964 16.2754 8.883V12.4834C16.9725 12.3122 17.4751 12.0027 17.8283 11.5879C18.3112 11.0209 18.6033 10.1534 18.6033 8.883V5.15848C18.6033 3.78152 18.2585 2.87521 17.6916 2.30835C17.1247 1.74149 16.2184 1.3967 14.8415 1.3967H8.88225C7.61701 1.3967 6.74902 1.68855 6.18035 2.17201C5.76463 2.52544 5.45396 3.02814 5.28221 3.72453ZM5.27568 1.1079C6.18284 0.33666 7.41921 0 8.88225 0H14.8415C16.4348 0 17.7585 0.400117 18.6792 1.32074C19.5999 2.24136 20 3.56512 20 5.15848V8.883C20 10.3502 19.6635 11.587 18.8916 12.4935C18.1123 13.4088 16.9775 13.8838 15.5993 14.0017C15.3894 14.0197 15.1825 13.9418 15.0365 13.79C14.8904 13.6381 14.8207 13.4283 14.8469 13.2193C14.8699 13.0347 14.8787 12.8331 14.8787 12.6075V8.883C14.8787 7.50605 14.5339 6.59974 13.9671 6.03288C13.4002 5.46601 12.4939 5.12122 11.117 5.12122H5.15769C4.93205 5.12122 4.73051 5.13001 4.54596 5.15309C4.33687 5.17922 4.12715 5.10955 3.97527 4.96348C3.82339 4.81742 3.74558 4.61059 3.76353 4.40064C3.88147 3.02124 4.35952 1.88678 5.27568 1.1079Z" fill="#4B5675"/>
<path fill-rule="evenodd" clip-rule="evenodd" d="M5.28221 3.72453H11.117C12.7103 3.72453 14.034 4.12464 14.9546 5.04526C15.8753 5.96589 16.2754 7.28964 16.2754 8.883V12.4834C16.9725 12.3122 17.4751 12.0027 17.8283 11.5879C18.3112 11.0209 18.6033 10.1534 18.6033 8.883V5.15848C18.6033 3.78152 18.2585 2.87521 17.6916 2.30835C17.1247 1.74149 16.2184 1.3967 14.8415 1.3967H8.88225C7.61701 1.3967 6.74902 1.68855 6.18035 2.17201C5.76463 2.52544 5.45396 3.02814 5.28221 3.72453ZM5.27568 1.1079C6.18284 0.33666 7.41921 0 8.88225 0H14.8415C16.4348 0 17.7585 0.400117 18.6792 1.32074C19.5999 2.24136 20 3.56512 20 5.15848V8.883C20 10.3502 19.6635 11.587 18.8916 12.4935C18.1123 13.4088 16.9775 13.8838 15.5993 14.0017C15.3894 14.0197 15.1825 13.9418 15.0365 13.79C14.8904 13.6381 14.8207 13.4283 14.8469 13.2193C14.8699 13.0347 14.8787 12.8331 14.8787 12.6075V8.883C14.8787 7.50605 14.5339 6.59974 13.9671 6.03288C13.4002 5.46601 12.4939 5.12122 11.117 5.12122H5.15769C4.93205 5.12122 4.73051 5.13001 4.54596 5.15309C4.33687 5.17922 4.12715 5.10955 3.97527 4.96348C3.82339 4.81742 3.74558 4.61059 3.76353 4.40064C3.88147 3.02124 4.35952 1.88678 5.27568 1.1079Z" fill="#056EE9"/>
<path fill-rule="evenodd" clip-rule="evenodd" d="M5.28221 3.72453H11.117C12.7103 3.72453 14.034 4.12464 14.9546 5.04526C15.8753 5.96589 16.2754 7.28964 16.2754 8.883V12.4834C16.9725 12.3122 17.4751 12.0027 17.8283 11.5879C18.3112 11.0209 18.6033 10.1534 18.6033 8.883V5.15848C18.6033 3.78152 18.2585 2.87521 17.6916 2.30835C17.1247 1.74149 16.2184 1.3967 14.8415 1.3967H8.88225C7.61701 1.3967 6.74902 1.68855 6.18035 2.17201C5.76463 2.52544 5.45396 3.02814 5.28221 3.72453ZM5.27568 1.1079C6.18284 0.33666 7.41921 0 8.88225 0H14.8415C16.4348 0 17.7585 0.400117 18.6792 1.32074C19.5999 2.24136 20 3.56512 20 5.15848V8.883C20 10.3502 19.6635 11.587 18.8916 12.4935C18.1123 13.4088 16.9775 13.8838 15.5993 14.0017C15.3894 14.0197 15.1825 13.9418 15.0365 13.79C14.8904 13.6381 14.8207 13.4283 14.8469 13.2193C14.8699 13.0347 14.8787 12.8331 14.8787 12.6075V8.883C14.8787 7.50605 14.5339 6.59974 13.9671 6.03288C13.4002 5.46601 12.4939 5.12122 11.117 5.12122H5.15769C4.93205 5.12122 4.73051 5.13001 4.54596 5.15309C4.33687 5.17922 4.12715 5.10955 3.97527 4.96348C3.82339 4.81742 3.74558 4.61059 3.76353 4.40064C3.88147 3.02124 4.35952 1.88678 5.27568 1.1079Z" fill="#252F4A"/>
<path fill-rule="evenodd" clip-rule="evenodd" d="M5.28221 3.72453H11.117C12.7103 3.72453 14.034 4.12464 14.9546 5.04526C15.8753 5.96589 16.2754 7.28964 16.2754 8.883V12.4834C16.9725 12.3122 17.4751 12.0027 17.8283 11.5879C18.3112 11.0209 18.6033 10.1534 18.6033 8.883V5.15848C18.6033 3.78152 18.2585 2.87521 17.6916 2.30835C17.1247 1.74149 16.2184 1.3967 14.8415 1.3967H8.88225C7.61701 1.3967 6.74902 1.68855 6.18035 2.17201C5.76463 2.52544 5.45396 3.02814 5.28221 3.72453ZM5.27568 1.1079C6.18284 0.33666 7.41921 0 8.88225 0H14.8415C16.4348 0 17.7585 0.400117 18.6792 1.32074C19.5999 2.24136 20 3.56512 20 5.15848V8.883C20 10.3502 19.6635 11.587 18.8916 12.4935C18.1123 13.4088 16.9775 13.8838 15.5993 14.0017C15.3894 14.0197 15.1825 13.9418 15.0365 13.79C14.8904 13.6381 14.8207 13.4283 14.8469 13.2193C14.8699 13.0347 14.8787 12.8331 14.8787 12.6075V8.883C14.8787 7.50605 14.5339 6.59974 13.9671 6.03288C13.4002 5.46601 12.4939 5.12122 11.117 5.12122H5.15769C4.93205 5.12122 4.73051 5.13001 4.54596 5.15309C4.33687 5.17922 4.12715 5.10955 3.97527 4.96348C3.82339 4.81742 3.74558 4.61059 3.76353 4.40064C3.88147 3.02124 4.35952 1.88678 5.27568 1.1079Z" fill="#77819C"/>
<g opacity="0.4">
<path fill-rule="evenodd" clip-rule="evenodd" d="M10.4717 11.1733C10.4717 10.6591 10.8885 10.2422 11.4028 10.2422H11.4112C11.9255 10.2422 12.3423 10.6591 12.3423 11.1733C12.3423 11.6876 11.9255 12.1045 11.4112 12.1045H11.4028C10.8885 12.1045 10.4717 11.6876 10.4717 11.1733Z" fill="#C3DCFF"/>
<path fill-rule="evenodd" clip-rule="evenodd" d="M10.4717 11.1733C10.4717 10.6591 10.8885 10.2422 11.4028 10.2422H11.4112C11.9255 10.2422 12.3423 10.6591 12.3423 11.1733C12.3423 11.6876 11.9255 12.1045 11.4112 12.1045H11.4028C10.8885 12.1045 10.4717 11.6876 10.4717 11.1733Z" fill="#EDF5FF"/>
<path fill-rule="evenodd" clip-rule="evenodd" d="M10.4717 11.1733C10.4717 10.6591 10.8885 10.2422 11.4028 10.2422H11.4112C11.9255 10.2422 12.3423 10.6591 12.3423 11.1733C12.3423 11.6876 11.9255 12.1045 11.4112 12.1045H11.4028C10.8885 12.1045 10.4717 11.6876 10.4717 11.1733Z" fill="#071437"/>
<path fill-rule="evenodd" clip-rule="evenodd" d="M10.4717 11.1733C10.4717 10.6591 10.8885 10.2422 11.4028 10.2422H11.4112C11.9255 10.2422 12.3423 10.6591 12.3423 11.1733C12.3423 11.6876 11.9255 12.1045 11.4112 12.1045H11.4028C10.8885 12.1045 10.4717 11.6876 10.4717 11.1733Z" fill="#4B5675"/>
<path fill-rule="evenodd" clip-rule="evenodd" d="M10.4717 11.1733C10.4717 10.6591 10.8885 10.2422 11.4028 10.2422H11.4112C11.9255 10.2422 12.3423 10.6591 12.3423 11.1733C12.3423 11.6876 11.9255 12.1045 11.4112 12.1045H11.4028C10.8885 12.1045 10.4717 11.6876 10.4717 11.1733Z" fill="#056EE9"/>
<path fill-rule="evenodd" clip-rule="evenodd" d="M10.4717 11.1733C10.4717 10.6591 10.8885 10.2422 11.4028 10.2422H11.4112C11.9255 10.2422 12.3423 10.6591 12.3423 11.1733C12.3423 11.6876 11.9255 12.1045 11.4112 12.1045H11.4028C10.8885 12.1045 10.4717 11.6876 10.4717 11.1733Z" fill="#252F4A"/>
<path fill-rule="evenodd" clip-rule="evenodd" d="M10.4717 11.1733C10.4717 10.6591 10.8885 10.2422 11.4028 10.2422H11.4112C11.9255 10.2422 12.3423 10.6591 12.3423 11.1733C12.3423 11.6876 11.9255 12.1045 11.4112 12.1045H11.4028C10.8885 12.1045 10.4717 11.6876 10.4717 11.1733Z" fill="#77819C"/>
</g>
<g opacity="0.4">
<path fill-rule="evenodd" clip-rule="evenodd" d="M7.2124 11.1733C7.2124 10.6591 7.62929 10.2422 8.14353 10.2422H8.15192C8.66619 10.2422 9.08306 10.6591 9.08306 11.1733C9.08306 11.6876 8.66619 12.1045 8.15192 12.1045H8.14353C7.62929 12.1045 7.2124 11.6876 7.2124 11.1733Z" fill="#C3DCFF"/>
<path fill-rule="evenodd" clip-rule="evenodd" d="M7.2124 11.1733C7.2124 10.6591 7.62929 10.2422 8.14353 10.2422H8.15192C8.66619 10.2422 9.08306 10.6591 9.08306 11.1733C9.08306 11.6876 8.66619 12.1045 8.15192 12.1045H8.14353C7.62929 12.1045 7.2124 11.6876 7.2124 11.1733Z" fill="#EDF5FF"/>
<path fill-rule="evenodd" clip-rule="evenodd" d="M7.2124 11.1733C7.2124 10.6591 7.62929 10.2422 8.14353 10.2422H8.15192C8.66619 10.2422 9.08306 10.6591 9.08306 11.1733C9.08306 11.6876 8.66619 12.1045 8.15192 12.1045H8.14353C7.62929 12.1045 7.2124 11.6876 7.2124 11.1733Z" fill="#071437"/>
<path fill-rule="evenodd" clip-rule="evenodd" d="M7.2124 11.1733C7.2124 10.6591 7.62929 10.2422 8.14353 10.2422H8.15192C8.66619 10.2422 9.08306 10.6591 9.08306 11.1733C9.08306 11.6876 8.66619 12.1045 8.15192 12.1045H8.14353C7.62929 12.1045 7.2124 11.6876 7.2124 11.1733Z" fill="#4B5675"/>
<path fill-rule="evenodd" clip-rule="evenodd" d="M7.2124 11.1733C7.2124 10.6591 7.62929 10.2422 8.14353 10.2422H8.15192C8.66619 10.2422 9.08306 10.6591 9.08306 11.1733C9.08306 11.6876 8.66619 12.1045 8.15192 12.1045H8.14353C7.62929 12.1045 7.2124 11.6876 7.2124 11.1733Z" fill="#056EE9"/>
<path fill-rule="evenodd" clip-rule="evenodd" d="M7.2124 11.1733C7.2124 10.6591 7.62929 10.2422 8.14353 10.2422H8.15192C8.66619 10.2422 9.08306 10.6591 9.08306 11.1733C9.08306 11.6876 8.66619 12.1045 8.15192 12.1045H8.14353C7.62929 12.1045 7.2124 11.6876 7.2124 11.1733Z" fill="#252F4A"/>
<path fill-rule="evenodd" clip-rule="evenodd" d="M7.2124 11.1733C7.2124 10.6591 7.62929 10.2422 8.14353 10.2422H8.15192C8.66619 10.2422 9.08306 10.6591 9.08306 11.1733C9.08306 11.6876 8.66619 12.1045 8.15192 12.1045H8.14353C7.62929 12.1045 7.2124 11.6876 7.2124 11.1733Z" fill="#77819C"/>
</g>
<g opacity="0.4">
<path fill-rule="evenodd" clip-rule="evenodd" d="M3.95361 11.1733C3.95361 10.6591 4.3705 10.2422 4.88475 10.2422H4.89313C5.40738 10.2422 5.82426 10.6591 5.82426 11.1733C5.82426 11.6876 5.40738 12.1045 4.89313 12.1045H4.88475C4.3705 12.1045 3.95361 11.6876 3.95361 11.1733Z" fill="#C3DCFF"/>
<path fill-rule="evenodd" clip-rule="evenodd" d="M3.95361 11.1733C3.95361 10.6591 4.3705 10.2422 4.88475 10.2422H4.89313C5.40738 10.2422 5.82426 10.6591 5.82426 11.1733C5.82426 11.6876 5.40738 12.1045 4.89313 12.1045H4.88475C4.3705 12.1045 3.95361 11.6876 3.95361 11.1733Z" fill="#EDF5FF"/>
<path fill-rule="evenodd" clip-rule="evenodd" d="M3.95361 11.1733C3.95361 10.6591 4.3705 10.2422 4.88475 10.2422H4.89313C5.40738 10.2422 5.82426 10.6591 5.82426 11.1733C5.82426 11.6876 5.40738 12.1045 4.89313 12.1045H4.88475C4.3705 12.1045 3.95361 11.6876 3.95361 11.1733Z" fill="#071437"/>
<path fill-rule="evenodd" clip-rule="evenodd" d="M3.95361 11.1733C3.95361 10.6591 4.3705 10.2422 4.88475 10.2422H4.89313C5.40738 10.2422 5.82426 10.6591 5.82426 11.1733C5.82426 11.6876 5.40738 12.1045 4.89313 12.1045H4.88475C4.3705 12.1045 3.95361 11.6876 3.95361 11.1733Z" fill="#4B5675"/>
<path fill-rule="evenodd" clip-rule="evenodd" d="M3.95361 11.1733C3.95361 10.6591 4.3705 10.2422 4.88475 10.2422H4.89313C5.40738 10.2422 5.82426 10.6591 5.82426 11.1733C5.82426 11.6876 5.40738 12.1045 4.89313 12.1045H4.88475C4.3705 12.1045 3.95361 11.6876 3.95361 11.1733Z" fill="#056EE9"/>
<path fill-rule="evenodd" clip-rule="evenodd" d="M3.95361 11.1733C3.95361 10.6591 4.3705 10.2422 4.88475 10.2422H4.89313C5.40738 10.2422 5.82426 10.6591 5.82426 11.1733C5.82426 11.6876 5.40738 12.1045 4.89313 12.1045H4.88475C4.3705 12.1045 3.95361 11.6876 3.95361 11.1733Z" fill="#252F4A"/>
<path fill-rule="evenodd" clip-rule="evenodd" d="M3.95361 11.1733C3.95361 10.6591 4.3705 10.2422 4.88475 10.2422H4.89313C5.40738 10.2422 5.82426 10.6591 5.82426 11.1733C5.82426 11.6876 5.40738 12.1045 4.89313 12.1045H4.88475C4.3705 12.1045 3.95361 11.6876 3.95361 11.1733Z" fill="#77819C"/>
</g>
<path fill-rule="evenodd" clip-rule="evenodd" d="M5.15848 5.12131C4.93284 5.12131 4.73129 5.1301 4.54674 5.15317C4.53772 5.1543 4.52868 5.15525 4.51962 5.15602C3.39426 5.25224 2.64784 5.62152 2.17201 6.18121C1.68855 6.74988 1.3967 7.61788 1.3967 8.88308V12.6076C1.3967 14.4098 1.76332 15.2625 2.27389 15.7084C2.80792 16.1747 3.68479 16.3694 5.15848 16.3694H5.53092C5.77554 16.3694 6.00357 16.4473 6.17531 16.5341C6.3475 16.6211 6.5395 16.7557 6.68158 16.9415L6.68553 16.9467L7.80382 18.4378C7.93979 18.6199 8.06783 18.653 8.1381 18.653C8.20839 18.653 8.33642 18.6199 8.47237 18.4378L8.4733 18.4365L9.59066 16.9467C9.86217 16.5846 10.2926 16.3694 10.7453 16.3694H11.1177C12.3841 16.3694 13.2519 16.0793 13.82 15.5971C14.379 15.1229 14.7485 14.3771 14.8448 13.2466C14.8455 13.2375 14.8465 13.2285 14.8476 13.2194C14.8707 13.0348 14.8795 12.8332 14.8795 12.6076V8.88308C14.8795 7.50613 14.5347 6.59982 13.9678 6.03296C13.4009 5.4661 12.4947 5.12131 11.1177 5.12131H5.15848ZM4.38728 3.76555C4.64514 3.73412 4.90445 3.72461 5.15848 3.72461H11.1177C12.7111 3.72461 14.0349 4.12473 14.9555 5.04535C15.8761 5.96597 16.2762 7.28973 16.2762 8.88308V12.6076C16.2762 12.8616 16.2667 13.1209 16.2352 13.3788C16.1155 14.7562 15.6377 15.8865 14.7238 16.6621C13.8161 17.4323 12.5796 17.7661 11.1177 17.7661H10.7453C10.7404 17.7661 10.7331 17.7673 10.7247 17.7715C10.7164 17.7757 10.7109 17.7809 10.708 17.7847L9.59159 19.2732C9.59149 19.2735 9.59177 19.273 9.59159 19.2732C9.23413 19.7519 8.71474 20.0497 8.1381 20.0497C7.56147 20.0497 7.04257 19.7525 6.68504 19.2739C6.68488 19.2737 6.68519 19.274 6.68504 19.2739L5.58181 17.8029C5.57384 17.7969 5.56121 17.7886 5.5453 17.7806C5.53096 17.7733 5.51872 17.7687 5.51047 17.7661H5.15848C3.66186 17.7661 2.30866 17.593 1.35521 16.7604C0.378291 15.9074 0 14.5299 0 12.6076V8.88308C0 7.42008 0.33666 6.18371 1.1079 5.27655C1.88427 4.36335 3.01392 3.88543 4.38728 3.76555Z" fill="#C3DCFF"/>
<path fill-rule="evenodd" clip-rule="evenodd" d="M5.15848 5.12131C4.93284 5.12131 4.73129 5.1301 4.54674 5.15317C4.53772 5.1543 4.52868 5.15525 4.51962 5.15602C3.39426 5.25224 2.64784 5.62152 2.17201 6.18121C1.68855 6.74988 1.3967 7.61788 1.3967 8.88308V12.6076C1.3967 14.4098 1.76332 15.2625 2.27389 15.7084C2.80792 16.1747 3.68479 16.3694 5.15848 16.3694H5.53092C5.77554 16.3694 6.00357 16.4473 6.17531 16.5341C6.3475 16.6211 6.5395 16.7557 6.68158 16.9415L6.68553 16.9467L7.80382 18.4378C7.93979 18.6199 8.06783 18.653 8.1381 18.653C8.20839 18.653 8.33642 18.6199 8.47237 18.4378L8.4733 18.4365L9.59066 16.9467C9.86217 16.5846 10.2926 16.3694 10.7453 16.3694H11.1177C12.3841 16.3694 13.2519 16.0793 13.82 15.5971C14.379 15.1229 14.7485 14.3771 14.8448 13.2466C14.8455 13.2375 14.8465 13.2285 14.8476 13.2194C14.8707 13.0348 14.8795 12.8332 14.8795 12.6076V8.88308C14.8795 7.50613 14.5347 6.59982 13.9678 6.03296C13.4009 5.4661 12.4947 5.12131 11.1177 5.12131H5.15848ZM4.38728 3.76555C4.64514 3.73412 4.90445 3.72461 5.15848 3.72461H11.1177C12.7111 3.72461 14.0349 4.12473 14.9555 5.04535C15.8761 5.96597 16.2762 7.28973 16.2762 8.88308V12.6076C16.2762 12.8616 16.2667 13.1209 16.2352 13.3788C16.1155 14.7562 15.6377 15.8865 14.7238 16.6621C13.8161 17.4323 12.5796 17.7661 11.1177 17.7661H10.7453C10.7404 17.7661 10.7331 17.7673 10.7247 17.7715C10.7164 17.7757 10.7109 17.7809 10.708 17.7847L9.59159 19.2732C9.59149 19.2735 9.59177 19.273 9.59159 19.2732C9.23413 19.7519 8.71474 20.0497 8.1381 20.0497C7.56147 20.0497 7.04257 19.7525 6.68504 19.2739C6.68488 19.2737 6.68519 19.274 6.68504 19.2739L5.58181 17.8029C5.57384 17.7969 5.56121 17.7886 5.5453 17.7806C5.53096 17.7733 5.51872 17.7687 5.51047 17.7661H5.15848C3.66186 17.7661 2.30866 17.593 1.35521 16.7604C0.378291 15.9074 0 14.5299 0 12.6076V8.88308C0 7.42008 0.33666 6.18371 1.1079 5.27655C1.88427 4.36335 3.01392 3.88543 4.38728 3.76555Z" fill="#EDF5FF"/>
<path fill-rule="evenodd" clip-rule="evenodd" d="M5.15848 5.12131C4.93284 5.12131 4.73129 5.1301 4.54674 5.15317C4.53772 5.1543 4.52868 5.15525 4.51962 5.15602C3.39426 5.25224 2.64784 5.62152 2.17201 6.18121C1.68855 6.74988 1.3967 7.61788 1.3967 8.88308V12.6076C1.3967 14.4098 1.76332 15.2625 2.27389 15.7084C2.80792 16.1747 3.68479 16.3694 5.15848 16.3694H5.53092C5.77554 16.3694 6.00357 16.4473 6.17531 16.5341C6.3475 16.6211 6.5395 16.7557 6.68158 16.9415L6.68553 16.9467L7.80382 18.4378C7.93979 18.6199 8.06783 18.653 8.1381 18.653C8.20839 18.653 8.33642 18.6199 8.47237 18.4378L8.4733 18.4365L9.59066 16.9467C9.86217 16.5846 10.2926 16.3694 10.7453 16.3694H11.1177C12.3841 16.3694 13.2519 16.0793 13.82 15.5971C14.379 15.1229 14.7485 14.3771 14.8448 13.2466C14.8455 13.2375 14.8465 13.2285 14.8476 13.2194C14.8707 13.0348 14.8795 12.8332 14.8795 12.6076V8.88308C14.8795 7.50613 14.5347 6.59982 13.9678 6.03296C13.4009 5.4661 12.4947 5.12131 11.1177 5.12131H5.15848ZM4.38728 3.76555C4.64514 3.73412 4.90445 3.72461 5.15848 3.72461H11.1177C12.7111 3.72461 14.0349 4.12473 14.9555 5.04535C15.8761 5.96597 16.2762 7.28973 16.2762 8.88308V12.6076C16.2762 12.8616 16.2667 13.1209 16.2352 13.3788C16.1155 14.7562 15.6377 15.8865 14.7238 16.6621C13.8161 17.4323 12.5796 17.7661 11.1177 17.7661H10.7453C10.7404 17.7661 10.7331 17.7673 10.7247 17.7715C10.7164 17.7757 10.7109 17.7809 10.708 17.7847L9.59159 19.2732C9.59149 19.2735 9.59177 19.273 9.59159 19.2732C9.23413 19.7519 8.71474 20.0497 8.1381 20.0497C7.56147 20.0497 7.04257 19.7525 6.68504 19.2739C6.68488 19.2737 6.68519 19.274 6.68504 19.2739L5.58181 17.8029C5.57384 17.7969 5.56121 17.7886 5.5453 17.7806C5.53096 17.7733 5.51872 17.7687 5.51047 17.7661H5.15848C3.66186 17.7661 2.30866 17.593 1.35521 16.7604C0.378291 15.9074 0 14.5299 0 12.6076V8.88308C0 7.42008 0.33666 6.18371 1.1079 5.27655C1.88427 4.36335 3.01392 3.88543 4.38728 3.76555Z" fill="#071437"/>
<path fill-rule="evenodd" clip-rule="evenodd" d="M5.15848 5.12131C4.93284 5.12131 4.73129 5.1301 4.54674 5.15317C4.53772 5.1543 4.52868 5.15525 4.51962 5.15602C3.39426 5.25224 2.64784 5.62152 2.17201 6.18121C1.68855 6.74988 1.3967 7.61788 1.3967 8.88308V12.6076C1.3967 14.4098 1.76332 15.2625 2.27389 15.7084C2.80792 16.1747 3.68479 16.3694 5.15848 16.3694H5.53092C5.77554 16.3694 6.00357 16.4473 6.17531 16.5341C6.3475 16.6211 6.5395 16.7557 6.68158 16.9415L6.68553 16.9467L7.80382 18.4378C7.93979 18.6199 8.06783 18.653 8.1381 18.653C8.20839 18.653 8.33642 18.6199 8.47237 18.4378L8.4733 18.4365L9.59066 16.9467C9.86217 16.5846 10.2926 16.3694 10.7453 16.3694H11.1177C12.3841 16.3694 13.2519 16.0793 13.82 15.5971C14.379 15.1229 14.7485 14.3771 14.8448 13.2466C14.8455 13.2375 14.8465 13.2285 14.8476 13.2194C14.8707 13.0348 14.8795 12.8332 14.8795 12.6076V8.88308C14.8795 7.50613 14.5347 6.59982 13.9678 6.03296C13.4009 5.4661 12.4947 5.12131 11.1177 5.12131H5.15848ZM4.38728 3.76555C4.64514 3.73412 4.90445 3.72461 5.15848 3.72461H11.1177C12.7111 3.72461 14.0349 4.12473 14.9555 5.04535C15.8761 5.96597 16.2762 7.28973 16.2762 8.88308V12.6076C16.2762 12.8616 16.2667 13.1209 16.2352 13.3788C16.1155 14.7562 15.6377 15.8865 14.7238 16.6621C13.8161 17.4323 12.5796 17.7661 11.1177 17.7661H10.7453C10.7404 17.7661 10.7331 17.7673 10.7247 17.7715C10.7164 17.7757 10.7109 17.7809 10.708 17.7847L9.59159 19.2732C9.59149 19.2735 9.59177 19.273 9.59159 19.2732C9.23413 19.7519 8.71474 20.0497 8.1381 20.0497C7.56147 20.0497 7.04257 19.7525 6.68504 19.2739C6.68488 19.2737 6.68519 19.274 6.68504 19.2739L5.58181 17.8029C5.57384 17.7969 5.56121 17.7886 5.5453 17.7806C5.53096 17.7733 5.51872 17.7687 5.51047 17.7661H5.15848C3.66186 17.7661 2.30866 17.593 1.35521 16.7604C0.378291 15.9074 0 14.5299 0 12.6076V8.88308C0 7.42008 0.33666 6.18371 1.1079 5.27655C1.88427 4.36335 3.01392 3.88543 4.38728 3.76555Z" fill="#4B5675"/>
<path fill-rule="evenodd" clip-rule="evenodd" d="M5.15848 5.12131C4.93284 5.12131 4.73129 5.1301 4.54674 5.15317C4.53772 5.1543 4.52868 5.15525 4.51962 5.15602C3.39426 5.25224 2.64784 5.62152 2.17201 6.18121C1.68855 6.74988 1.3967 7.61788 1.3967 8.88308V12.6076C1.3967 14.4098 1.76332 15.2625 2.27389 15.7084C2.80792 16.1747 3.68479 16.3694 5.15848 16.3694H5.53092C5.77554 16.3694 6.00357 16.4473 6.17531 16.5341C6.3475 16.6211 6.5395 16.7557 6.68158 16.9415L6.68553 16.9467L7.80382 18.4378C7.93979 18.6199 8.06783 18.653 8.1381 18.653C8.20839 18.653 8.33642 18.6199 8.47237 18.4378L8.4733 18.4365L9.59066 16.9467C9.86217 16.5846 10.2926 16.3694 10.7453 16.3694H11.1177C12.3841 16.3694 13.2519 16.0793 13.82 15.5971C14.379 15.1229 14.7485 14.3771 14.8448 13.2466C14.8455 13.2375 14.8465 13.2285 14.8476 13.2194C14.8707 13.0348 14.8795 12.8332 14.8795 12.6076V8.88308C14.8795 7.50613 14.5347 6.59982 13.9678 6.03296C13.4009 5.4661 12.4947 5.12131 11.1177 5.12131H5.15848ZM4.38728 3.76555C4.64514 3.73412 4.90445 3.72461 5.15848 3.72461H11.1177C12.7111 3.72461 14.0349 4.12473 14.9555 5.04535C15.8761 5.96597 16.2762 7.28973 16.2762 8.88308V12.6076C16.2762 12.8616 16.2667 13.1209 16.2352 13.3788C16.1155 14.7562 15.6377 15.8865 14.7238 16.6621C13.8161 17.4323 12.5796 17.7661 11.1177 17.7661H10.7453C10.7404 17.7661 10.7331 17.7673 10.7247 17.7715C10.7164 17.7757 10.7109 17.7809 10.708 17.7847L9.59159 19.2732C9.59149 19.2735 9.59177 19.273 9.59159 19.2732C9.23413 19.7519 8.71474 20.0497 8.1381 20.0497C7.56147 20.0497 7.04257 19.7525 6.68504 19.2739C6.68488 19.2737 6.68519 19.274 6.68504 19.2739L5.58181 17.8029C5.57384 17.7969 5.56121 17.7886 5.5453 17.7806C5.53096 17.7733 5.51872 17.7687 5.51047 17.7661H5.15848C3.66186 17.7661 2.30866 17.593 1.35521 16.7604C0.378291 15.9074 0 14.5299 0 12.6076V8.88308C0 7.42008 0.33666 6.18371 1.1079 5.27655C1.88427 4.36335 3.01392 3.88543 4.38728 3.76555Z" fill="#056EE9"/>
<path fill-rule="evenodd" clip-rule="evenodd" d="M5.15848 5.12131C4.93284 5.12131 4.73129 5.1301 4.54674 5.15317C4.53772 5.1543 4.52868 5.15525 4.51962 5.15602C3.39426 5.25224 2.64784 5.62152 2.17201 6.18121C1.68855 6.74988 1.3967 7.61788 1.3967 8.88308V12.6076C1.3967 14.4098 1.76332 15.2625 2.27389 15.7084C2.80792 16.1747 3.68479 16.3694 5.15848 16.3694H5.53092C5.77554 16.3694 6.00357 16.4473 6.17531 16.5341C6.3475 16.6211 6.5395 16.7557 6.68158 16.9415L6.68553 16.9467L7.80382 18.4378C7.93979 18.6199 8.06783 18.653 8.1381 18.653C8.20839 18.653 8.33642 18.6199 8.47237 18.4378L8.4733 18.4365L9.59066 16.9467C9.86217 16.5846 10.2926 16.3694 10.7453 16.3694H11.1177C12.3841 16.3694 13.2519 16.0793 13.82 15.5971C14.379 15.1229 14.7485 14.3771 14.8448 13.2466C14.8455 13.2375 14.8465 13.2285 14.8476 13.2194C14.8707 13.0348 14.8795 12.8332 14.8795 12.6076V8.88308C14.8795 7.50613 14.5347 6.59982 13.9678 6.03296C13.4009 5.4661 12.4947 5.12131 11.1177 5.12131H5.15848ZM4.38728 3.76555C4.64514 3.73412 4.90445 3.72461 5.15848 3.72461H11.1177C12.7111 3.72461 14.0349 4.12473 14.9555 5.04535C15.8761 5.96597 16.2762 7.28973 16.2762 8.88308V12.6076C16.2762 12.8616 16.2667 13.1209 16.2352 13.3788C16.1155 14.7562 15.6377 15.8865 14.7238 16.6621C13.8161 17.4323 12.5796 17.7661 11.1177 17.7661H10.7453C10.7404 17.7661 10.7331 17.7673 10.7247 17.7715C10.7164 17.7757 10.7109 17.7809 10.708 17.7847L9.59159 19.2732C9.59149 19.2735 9.59177 19.273 9.59159 19.2732C9.23413 19.7519 8.71474 20.0497 8.1381 20.0497C7.56147 20.0497 7.04257 19.7525 6.68504 19.2739C6.68488 19.2737 6.68519 19.274 6.68504 19.2739L5.58181 17.8029C5.57384 17.7969 5.56121 17.7886 5.5453 17.7806C5.53096 17.7733 5.51872 17.7687 5.51047 17.7661H5.15848C3.66186 17.7661 2.30866 17.593 1.35521 16.7604C0.378291 15.9074 0 14.5299 0 12.6076V8.88308C0 7.42008 0.33666 6.18371 1.1079 5.27655C1.88427 4.36335 3.01392 3.88543 4.38728 3.76555Z" fill="#252F4A"/>
<path fill-rule="evenodd" clip-rule="evenodd" d="M5.15848 5.12131C4.93284 5.12131 4.73129 5.1301 4.54674 5.15317C4.53772 5.1543 4.52868 5.15525 4.51962 5.15602C3.39426 5.25224 2.64784 5.62152 2.17201 6.18121C1.68855 6.74988 1.3967 7.61788 1.3967 8.88308V12.6076C1.3967 14.4098 1.76332 15.2625 2.27389 15.7084C2.80792 16.1747 3.68479 16.3694 5.15848 16.3694H5.53092C5.77554 16.3694 6.00357 16.4473 6.17531 16.5341C6.3475 16.6211 6.5395 16.7557 6.68158 16.9415L6.68553 16.9467L7.80382 18.4378C7.93979 18.6199 8.06783 18.653 8.1381 18.653C8.20839 18.653 8.33642 18.6199 8.47237 18.4378L8.4733 18.4365L9.59066 16.9467C9.86217 16.5846 10.2926 16.3694 10.7453 16.3694H11.1177C12.3841 16.3694 13.2519 16.0793 13.82 15.5971C14.379 15.1229 14.7485 14.3771 14.8448 13.2466C14.8455 13.2375 14.8465 13.2285 14.8476 13.2194C14.8707 13.0348 14.8795 12.8332 14.8795 12.6076V8.88308C14.8795 7.50613 14.5347 6.59982 13.9678 6.03296C13.4009 5.4661 12.4947 5.12131 11.1177 5.12131H5.15848ZM4.38728 3.76555C4.64514 3.73412 4.90445 3.72461 5.15848 3.72461H11.1177C12.7111 3.72461 14.0349 4.12473 14.9555 5.04535C15.8761 5.96597 16.2762 7.28973 16.2762 8.88308V12.6076C16.2762 12.8616 16.2667 13.1209 16.2352 13.3788C16.1155 14.7562 15.6377 15.8865 14.7238 16.6621C13.8161 17.4323 12.5796 17.7661 11.1177 17.7661H10.7453C10.7404 17.7661 10.7331 17.7673 10.7247 17.7715C10.7164 17.7757 10.7109 17.7809 10.708 17.7847L9.59159 19.2732C9.59149 19.2735 9.59177 19.273 9.59159 19.2732C9.23413 19.7519 8.71474 20.0497 8.1381 20.0497C7.56147 20.0497 7.04257 19.7525 6.68504 19.2739C6.68488 19.2737 6.68519 19.274 6.68504 19.2739L5.58181 17.8029C5.57384 17.7969 5.56121 17.7886 5.5453 17.7806C5.53096 17.7733 5.51872 17.7687 5.51047 17.7661H5.15848C3.66186 17.7661 2.30866 17.593 1.35521 16.7604C0.378291 15.9074 0 14.5299 0 12.6076V8.88308C0 7.42008 0.33666 6.18371 1.1079 5.27655C1.88427 4.36335 3.01392 3.88543 4.38728 3.76555Z" fill="#77819C"/>
</svg>
